<svg xmlns="http://www.w3.org/2000/svg" viewBox="0 0 267.93 110.53"><title>logo-vector</title><g id="Layer_1" data-name="Layer 1"><g id="uIfGVc.tif"><path d="M16.57,67.7c0-2.6,0-5.1,0-7.6,0-1.85,0-3.7,0-5.54a.93.93,0,0,1,.81-1.1q11.86-3.58,23.7-7.22L85.52,32.68c.53-.16,1.06-.35,1.68-.55V46ZM64.33,46h0q0,.61,0,1.22c0,2.8,0,2.44,2.45,1.69a1.46,1.46,0,0,0,.84-1.05c.08-1.78,0-3.57,0-5.35,0-.56-.28-.89-.92-.68a6.88,6.88,0,0,0-1.59.53,1.82,1.82,0,0,0-.77,1.11A17.93,17.93,0,0,0,64.33,46ZM47.58,51.56h0c0-.75,0-1.5,0-2.25,0-1.39-.07-1.44-1.36-1-.27.09-.53.17-.8.24a1.36,1.36,0,0,0-1.16,1.55c0,1.28,0,2.57.09,3.85.14,2-.29,2.21,2,1.4.12,0,.25,0,.37-.08a1.12,1.12,0,0,0,.9-1.24C47.55,53.19,47.58,52.38,47.58,51.56Zm10.88-7.14v7c.87,0,1.19-.36,1.13-1.13s0-1.58,0-2.37l.2,0,1.09,2.77c1,0,1.26-.39,1.2-1.27s0-2.07,0-3.1,0-1.9,0-2.85c-1,0-1.33.29-1.24,1.12a16.33,16.33,0,0,1,0,1.67h-.19l-.86-2.19Zm-7.36,6,.17,0,1.1,2.9c1,0,1.34-.48,1.22-1.36a8.3,8.3,0,0,1,0-1.13c0-1.58,0-3.16,0-4.76-.9,0-1.33.23-1.22,1.1a15.45,15.45,0,0,1,0,1.84h-.17l-1-2.52c-.51.37-1.27.65-1.28,1-.11,2.2-.06,4.41-.06,6.63,1,0,1.32-.38,1.26-1.19S51.1,51.29,51.1,50.46ZM33.22,52.39c-.29,0-.48.07-.65.11-.89.22-1.7.46-1.57,1.71a9.07,9.07,0,0,1-.25,1.93c-.16,1.35-.31,2.71-.46,4.06l.24.19c.35-.3,1-.58,1-.91.08-.89.6-1,1.28-1l.26,1,1.11-.37Zm38.84-5.24c1.19-.13,1.23-.15,1.2-1.09,0-1.66-.13-3.32-.21-5,0-.19,0-.42-.09-.55s-.43-.44-.6-.4a17,17,0,0,0-2.12.68.62.62,0,0,0-.32.46c0,2.2,0,4.41,0,6.61,1.06,0,1.33-.49,1.22-1.33,0-.37,0-.75,0-1.12-.05-.68.31-.84,1-.83Zm9.32-6.95V37.46l-.25-.21c-.32.28-.91.55-.93.85-.08,2.18,0,4.36,0,6.55,1,0,1.37-.33,1.26-1.15-.06-.43,0-.88,0-1.31-.07-.69.24-1,1-1V44c.84,0,1.41-.17,1.19-1.14a4.87,4.87,0,0,1,0-1c0-1.68,0-3.37,0-5.06-.93,0-1.29.3-1.19,1.12.05.43,0,.88,0,1.31C82.44,39.8,82.22,40.18,81.38,40.2ZM21.64,56.84a4.77,4.77,0,0,0,.93.34c.31,0,.84.06.9-.07a2.8,2.8,0,0,0,.16-1.3c0-.12-.45-.32-.67-.3-2.18.29-2.54.73-2.53,2.92,0,1.83,0,1.83,1.82,1.36a.77.77,0,0,1,.27,0c.23,1.69.21,1.74-.66,1.91a2.91,2.91,0,0,0-.94-.36A13.92,13.92,0,0,0,20.39,63c2.1.4,3.36-.58,3.37-2.41,0-.19,0-.38,0-.56,0-1.7,0-1.7-1.73-1.34a1.69,1.69,0,0,1-.38,0Zm14.17-4.31.95-.08V58.2c1,0,1.28-.35,1.24-1.24-.08-1.65,0-3.3,0-5,.82-.11,1.16-.52.8-1.39a19.68,19.68,0,0,1-2.24.73C35.8,51.44,35.6,51.79,35.82,52.54Zm-9.16,8.82c1.06,0,1.28-.43,1.23-1.25-.09-1.31,0-2.63-.06-3.94,0-.71,0-1.32,1-1.36l-.06-1.07c-.89.28-1.65.57-2.43.74s-.8.56-.59,1.18l.94-.1ZM76.14,40.22v5.64c.88.09,1.22-.19,1.18-1-.07-1.49-.06-3,0-4.49,0-.27.22-.73.41-.78.82-.21.62-.66.44-1.25-.83.26-1.58.57-2.36.73s-.82.52-.63,1.18Zm-34,9.48c-1.08,0-1.33.39-1.29,1.17.06,1.21,0,2.43,0,3.65,0,.79,0,1.59,0,2.45.71-.15,1.28-.1,1.27-1C42.08,53.93,42.1,51.84,42.1,49.7Z" transform="translate(-9.18 -19.91)"/><path d="M85,47.28c0,.52,0,.92,0,1.33q0,33.45,0,66.91A1.42,1.42,0,0,1,84,117.08c-8.89,3.72-17.76,7.48-26.63,11.22-1.67.7-3.33,1.4-5,2a1.7,1.7,0,0,1-1.15,0q-15.65-6.59-31.28-13.22a1.45,1.45,0,0,1-1.08-1.56c0-12.91,0-25.81,0-38.72,0-.4,0-.8,0-1.4L9.22,78.27c.89-2.59,1.72-5,2.59-7.48a2.08,2.08,0,0,0-.06-1.68c-.88-2-1.67-4-2.56-6.18L16,60.87v7.45l5.68-1.63V68q0,22.51,0,45a1.4,1.4,0,0,0,1,1.56Q35.67,120,48.56,125.48c3.18,1.35,3.16,1.39,6.36,0Q68.2,120,81.48,114.41c.6-.25.66-.61.66-1.15,0-4.82,0-9.65,0-14.47q0-24.76,0-49.52c0-.88.14-1.41,1.11-1.52A13.26,13.26,0,0,0,85,47.28Z" transform="translate(-9.18 -19.91)"/><path d="M87.79,31.49l-5.65,1.63V23.9H81.07q-29.12,0-58.24,0c-.91,0-1.14.27-1.14,1.15,0,8.27,0,16.53,0,24.8,0,1.76,0,1.76-1.65,2.27l-1.15.36V19.91H85v5.15l9.68-2.87c-.46,1.36-.87,2.59-1.29,3.81-.14.41-.31.81-.45,1.23-1.17,3.44-1.16,3.44.34,6.82.49,1.1.93,2.22,1.46,3.48L87.79,39.6Z" transform="translate(-9.18 -19.91)"/><path d="M29.94,44a5.39,5.39,0,0,0,1,.74c.37.14.94.31,1.17.14a1.62,1.62,0,0,0,.45-1.19,3.12,3.12,0,0,0-.43-1.42c-.91-1.59-.34-3,.53-4.45a4.48,4.48,0,0,0,.67.87c.28.22.73.51,1,.42a1.76,1.76,0,0,0,.77-.89,1.6,1.6,0,0,0,.09-.92,4.55,4.55,0,0,1,1.91-4.73,4.39,4.39,0,0,0,.33,1c.19.32.5.73.79.76a1.32,1.32,0,0,0,1-.56,4.68,4.68,0,0,0,.5-1.3c.67-2.08.68-2.09,3.2-3.67a5.12,5.12,0,0,0,0,1.14c.09.36.24.86.5,1a1.35,1.35,0,0,0,1.1-.2,4,4,0,0,0,.92-1c1.27-1.78,1.68-2.06,4.13-2.56l-.34,1.15c-.29,1,.09,1.44,1.06,1.23a3,3,0,0,0,1.47-.75c1.3-1.35,2.92-1.29,4.65-1.25a6.5,6.5,0,0,0-.67,1.14c-.13.37-.28,1-.1,1.17a1.78,1.78,0,0,0,1.25.38,3.16,3.16,0,0,0,1.33-.42c1.61-.87,3.06-.2,4.61.4a5.47,5.47,0,0,0-1,.77c-.25.31-.59.83-.48,1.06a1.92,1.92,0,0,0,1.08.7,2.29,2.29,0,0,0,1,0A5,5,0,0,1,68,34.62c-.39.14-.8.26-1.19.42-.86.37-1,.94-.24,1.55a10.85,10.85,0,0,0,1.41.86c-2.64.82-5.21,1.62-7.78,2.4l-23,7c-1.67.51-3.33,1-5,1.51-.38.11-1,.28-1.17.1a6.58,6.58,0,0,1-1.15-1.85,3.25,3.25,0,0,1,0-1.21C29.94,45,29.94,44.59,29.94,44Z" transform="translate(-9.18 -19.91)"/><path d="M72.91,50.95v3.18a4.86,4.86,0,0,0-.86-.73c-.36-.17-.86-.42-1.14-.29a1.34,1.34,0,0,0-.53,1.06,5.23,5.23,0,0,0,.4,1.81,3.53,3.53,0,0,1,0,2.95,15.27,15.27,0,0,0-.52,1.6,5.46,5.46,0,0,0-.7-1.1,1.59,1.59,0,0,0-1-.49c-.26,0-.62.44-.69.74a4.84,4.84,0,0,0-.18,1.94c.32,1.78-.85,2.81-1.86,4.17a5.72,5.72,0,0,0-.32-1.18c-.18-.33-.46-.79-.73-.82a1.42,1.42,0,0,0-1.05.53,3.32,3.32,0,0,0-.63,1.44c-.3,1.81-1.62,2.7-3.15,3.64A9.79,9.79,0,0,0,60,68c0-.3-.19-.74-.41-.83a1.22,1.22,0,0,0-1,.12,3.65,3.65,0,0,0-1.08,1.15,4.32,4.32,0,0,1-3.09,2.3,9.09,9.09,0,0,0-1.07.37l.46-1.36c.25-.72,0-1.15-.74-1.08a2.83,2.83,0,0,0-1.7.59,4.41,4.41,0,0,1-4.8,1.14,11.82,11.82,0,0,0,.74-1c.41-.71.17-1.22-.64-1.27a3.17,3.17,0,0,0-1.64.15c-1.66.92-3.19.38-4.89-.31a4.56,4.56,0,0,0,.87-.66,1.87,1.87,0,0,0,.54-1.06c0-.27-.46-.66-.78-.74a6.67,6.67,0,0,0-2-.18A3.09,3.09,0,0,1,36,64.41a9.92,9.92,0,0,0-1.38-1c.47-.13.78-.19,1.07-.29s.72-.19.8-.39c.34-.94,1.2-1,1.93-1.25Q49.08,58.23,59.71,55Z" transform="translate(-9.18 -19.91)"/><path d="M54.32,89.87q0-5,0-10a2.06,2.06,0,0,1,2.28-2.34c1.47,0,2.94-.05,4.41,0a2.11,2.11,0,0,1,2.35,2.39q0,10,0,20a2.11,2.11,0,0,1-2.32,2.33c-1.47,0-2.94,0-4.41,0a2.11,2.11,0,0,1-2.31-2.34c0-3.35,0-6.7,0-10Zm5.79-9.19c-.67,0-1.29,0-1.9,0s-.74.12-.74.74c0,5.29,0,10.58,0,15.87,0,.59,0,1.17,0,1.79h2.65ZM55.27,78.2l-.06.37c.31.17.62.47.93.48,1.37,0,2.74-.09,4.11-.11s1.68.24,1.68,1.69q0,9,0,17.92a4.58,4.58,0,0,1,0,1.4c-.24.7.06,1,.76,1.43A6,6,0,0,0,63,100Q63,90,63,79.87a1.82,1.82,0,0,0-2-2c-1.41,0-2.82,0-4.22,0A7.53,7.53,0,0,0,55.27,78.2Zm.88,1.32c0,.5-.08.86-.08,1.23q0,5.82,0,11.64c0,2.25,0,4.51,0,6.76,0,.77.33,1.31,1.11,1.36,1.19.06,2.38,0,3.57,0,.17,0,.35-.17.58-.3-1.2-1.44-2.8-.38-4.15-.91v-1c0-5.7,0-11.39,0-17.09A1.69,1.69,0,0,0,56.14,79.53Z" transform="translate(-9.18 -19.91)"/><path d="M49.67,89.86q0,5.07,0,10.15a2,2,0,0,1-2.25,2.25c-1.5,0-3,0-4.51,0a2.15,2.15,0,0,1-2.27-2.3q0-10,0-20A2.15,2.15,0,0,1,43,77.57c1.59,0,3.19-.08,4.78,0a1.89,1.89,0,0,1,1.88,2.13C49.68,83.09,49.67,86.47,49.67,89.86Zm-5.76-9.18V99.06h2.63c0-.36,0-.66,0-1,0-5.6,0-11.2,0-16.8a.79.79,0,0,0-.49-.59C45.37,80.63,44.65,80.68,43.91,80.68Zm-2.32-2.42,0,.3c.3.17.59.48.89.49,1.37,0,2.74-.08,4.11-.1s1.77.27,1.77,1.72q0,9.29,0,18.58a1.82,1.82,0,0,1,0,.74c-.34.71.07,1,.79,1.46a13.42,13.42,0,0,0,.33-2c0-4,0-8,0-12,0-2.41,0-4.82,0-7.23,0-1.64-.74-2.35-2.34-2.35-1.31,0-2.63,0-3.94,0A7.48,7.48,0,0,0,41.59,78.26Zm.92,1.3c0,.47-.11.89-.11,1.3q0,8.82,0,17.64c0,.25,0,.5,0,.75a1.23,1.23,0,0,0,1.39,1.29c1,0,2,0,3,0a4.77,4.77,0,0,0,.87-.21c-1.2-1.62-2.88-.43-4.23-1.06,0-.33,0-.7,0-1.07,0-5.69,0-11.38,0-17.08A1.47,1.47,0,0,0,42.51,79.56Z" transform="translate(-9.18 -19.91)"/><path d="M35.35,102.23H32.2V80.71H29.39v-3.1H38.1v3.06H35.35ZM33.95,79.48a2.15,2.15,0,0,0-.06.33q0,10.23,0,20.45c0,.78.5,1.08,1.11,1.5,0-.44,0-.76,0-1.07,0-6.41,0-12.82,0-19.24A2,2,0,0,0,33.95,79.48Zm-4.11-1.62A1.83,1.83,0,0,0,31.71,79c1-.08,1.94,0,2.9,0a2.94,2.94,0,0,1,2.94,1.14s.11,0,.17,0v-2.2Z" transform="translate(-9.18 -19.91)"/><path d="M71.1,99.11H74.8v3.1H67.91v-1.56q0-10.85,0-21.69c0-1.45,0-1.45,1.45-1.43H71.1Zm-.32.35V77.94H68.53c1.15.8,1.26,1.86,1.25,3.09,0,6.14,0,12.27,0,18.41,0,.33,0,.67,0,1,1.71.25,3.59-.59,4.8,1.47V99.46Z" transform="translate(-9.18 -19.91)"/><path d="M45.95,108.62c.19.76.56,1.39.38,1.73a2.17,2.17,0,0,1-1.37.88,10.9,10.9,0,0,1-2.21,0v-4.49c.69,0,1.39,0,2.09,0C46.11,106.88,46.51,107.76,45.95,108.62Zm-2.23.79v.94a6.09,6.09,0,0,0,1.12,0c.23,0,.42-.26.63-.4-.22-.17-.41-.43-.65-.5A4.58,4.58,0,0,0,43.71,109.41Zm0-.62,1.47-.53c-.08-.18-.14-.48-.25-.5a8.58,8.58,0,0,0-1.25-.11c0,.25,0,.37,0,.49S43.66,108.38,43.71,108.79Z" transform="translate(-9.18 -19.91)"/><path d="M61.69,111.25H60.8v-4.46h1.78c.78,0,1.53.12,1.82,1a1.52,1.52,0,0,1-.83,1.91l.95,1.45a1,1,0,0,1-1.45-.52.93.93,0,0,0-.28-.37,8,8,0,0,0-.74-.42,4.57,4.57,0,0,0-.32.69A3.7,3.7,0,0,0,61.69,111.25Zm.11-3.58c-.13,1.3-.11,1.33.64,1.33.53,0,1.16-.09,1-.73C63.28,107.39,62.47,107.72,61.8,107.67Z" transform="translate(-9.18 -19.91)"/><path d="M48.57,106.81a11.57,11.57,0,0,1,2.38,0,2.06,2.06,0,0,1,1.2,1c.43.81-.16,1.39-.78,1.89l.92,1.45c-.77.31-1.15,0-1.5-.59s-.49-1-1.27-.66l-.08,1.28c-.56.15-.9.14-.88-.59C48.6,109.4,48.57,108.18,48.57,106.81Zm.9.81c.1.65-.36,1.45.7,1.34.39,0,1.1-.48,1.07-.64C51.08,107.33,50.23,107.77,49.48,107.62Z" transform="translate(-9.18 -19.91)"/><path d="M54.1,111.18c.59-1.37,1.15-2.72,1.75-4a.7.7,0,0,1,.56-.34.87.87,0,0,1,.63.39c.59,1.3,1.14,2.62,1.71,4-.61.26-.95.17-1.22-.43a1.17,1.17,0,0,0-.94-.47c-.43,0-1.09.15-1.24.44C55,111.27,54.73,111.38,54.1,111.18ZM57,109.34l-.57-1.43-.55,1.43Z" transform="translate(-9.18 -19.91)"/><path d="M69,111.23H67.82c.56-1.82-.8-3-1.51-4.35.88-.11.88-.11,2.12,1.52.74-.45.64-2,2.1-1.54C69.92,108.28,68.36,109.32,69,111.23Z" transform="translate(-9.18 -19.91)"/><path d="M37.14,111.24H34.08v-4.39H35v3.48H37.2Z" transform="translate(-9.18 -19.91)"/><path d="M39.34,106.81h.86v4.42h-.86Z" transform="translate(-9.18 -19.91)"/><path d="M55.48,118.2H54.36c0-.85,0-1.71,0-2.56,0-.15.39-.39.58-.38a.71.71,0,0,1,.49.49C55.51,116.55,55.48,117.36,55.48,118.2Z" transform="translate(-9.18 -19.91)"/><path d="M58.91,115a7,7,0,0,1,0,1.62,2.3,2.3,0,0,1-.55.75L59,118l-.21.34c-.33-.13-1-.27-.95-.38a5.2,5.2,0,0,1,.39-1.39,7.1,7.1,0,0,1,.46-.82l-.71.41c0-.19-.19-.51-.12-.56A6.58,6.58,0,0,1,58.91,115Z" transform="translate(-9.18 -19.91)"/><path d="M47.58,118.21h-1.1v-1.07l.49.64s.14-.07.13-.08c-.05-.25-.07-.66-.2-.71-.92-.29-.31-1-.4-1.48,0,0,.55-.32.66-.24a2.4,2.4,0,0,1,.49.77l-.23.15-.47-.33-.16.1c.13.19.27.38.4.58a2.48,2.48,0,0,1,.37.69A4.94,4.94,0,0,1,47.58,118.21Z" transform="translate(-9.18 -19.91)"/><path d="M52.87,115.85l-.59.52c.07-.49,0-.81.17-1a.67.67,0,0,1,.67-.09.94.94,0,0,1,.28.7c0,.44.26,1.05-.53,1.18-.09,0-.11.38-.23.78l.68-.52.09.79h-1.1a4.33,4.33,0,0,1,0-1.33c.11-.33.51-.56.78-.83Z" transform="translate(-9.18 -19.91)"/><path d="M44.58,118.27v-3h1.1c-.75.46-.84.93-.38,1.48-.65.53-.38.93.38,1.39Z" transform="translate(-9.18 -19.91)"/><path d="M48.52,115.3h.75L49,118.21h-.21Z" transform="translate(-9.18 -19.91)"/><path d="M56.74,115.27v2.93h-.25v-2.93Z" transform="translate(-9.18 -19.91)"/><path d="M71.26,43.49c0-.69-.64-1.56.57-2.06C71.75,42.26,72.18,43.05,71.26,43.49Z" transform="translate(-9.18 -19.91)"/></g></g><g id="Layer_3" data-name="Layer 3"><path d="M197.92,71.2a11.85,11.85,0,0,0-.17,1.44q0,9,0,18c0,2.64.06,5.28.09,7.92q0,5.07.07,10.13c0,.91-.18,1.08-1.1,1.08h-7.64c-.73,0-.85-.13-.87-.86,0-.26,0-.53,0-.79q0-36.06,0-72.13c0-1.83-.06-1.61,1.63-1.61,3,0,6,0,8.94,0a1.09,1.09,0,0,1,1.22.84c0,.13.1.25.13.38.27,1.15.53,2.31.81,3.46.35,1.42.72,2.84,1.07,4.26.24.95.49,1.89.72,2.84.31,1.34.59,2.68.91,4s.68,2.58,1,3.87c.09.33.15.66.22,1,.29,1.28.57,2.57.89,3.84S206.64,61.6,207,63c.41,1.58.8,3.17,1.19,4.76.11.46.18.92.27,1.39.05.25.12.49.18.73h.19A11.15,11.15,0,0,0,209,68.6c0-1.19.05-2.38.06-3.57q0-13.47,0-26.95c0-1,.05-2,.06-3a.58.58,0,0,1,.65-.67l2.26,0h5.6c.91,0,1.05.13,1.11,1,0,.28,0,.57,0,.85q0,35.81,0,71.62c0,.3,0,.6,0,.91-.05.78-.25,1-1,1-1.4,0-2.79,0-4.19,0h-5c-1.09,0-1.21-.15-1.46-1.21-.36-1.57-.79-3.13-1.17-4.7-.32-1.33-.58-2.68-.89-4s-.69-2.77-1-4.16-.62-2.6-.93-3.9q-.53-2.22-1.06-4.44c-.23-1-.49-1.93-.71-2.9-.31-1.36-.58-2.72-.9-4.07s-.67-2.66-1-4c-.08-.29-.18-.58-.24-.87-.31-1.36-.61-2.71-.92-4.07,0-.09-.05-.18-.08-.26Zm19.28,37.23.37-.15c0-.47.11-.94.11-1.4q0-35.1,0-70.2a4.18,4.18,0,0,0,0-.62.6.6,0,0,0-.64-.59c-1.83,0-3.66,0-5.49,0a.79.79,0,0,0-.57.36c-.06.11.09.41.23.55.8.85,1.6,1.7,2.46,2.5a2.37,2.37,0,0,1,.76,1.91q0,31.59,0,63.18c0,.38,0,.76,0,1.13a.92.92,0,0,0,.19.51C215.47,106.57,216.34,107.49,217.2,108.43Zm-4.63-7.54h.3a13.12,13.12,0,0,0,0-1.52c-.14-1.15-.33-2.3-.49-3.45-.07-.52-.1-1.05-.18-1.57-.38-2.82-.76-5.64-1.16-8.45-.23-1.64-.49-3.28-.75-4.92a5.37,5.37,0,0,0-.16-.54c-.37-1.38-.75-2.75-1.1-4.14s-.59-2.49-.89-3.73c-.21-.88-.43-1.75-.66-2.62-.35-1.31-.73-2.6-1.06-3.92s-.59-2.56-.88-3.85c0-.07-.06-.14-.08-.21-.35-1.27-.72-2.53-1-3.8s-.58-2.57-.9-3.85c-.4-1.62-.82-3.24-1.23-4.86l-.85-3.33-1.09-4.26c-.1-.38-.19-.77-.29-1.15-.35-1.31-.77-2.6-1-3.92-.17-.91-.15-1.29-1.55-1.32-2.09,0-4.19,0-6.28,0a2.47,2.47,0,0,0-.51,0c-.51.11-.63.46-.26.84.62.63,1.23,1.27,1.89,1.86a1.43,1.43,0,0,0,.81.3c.79.05,1.58.06,2.38.06a.84.84,0,0,1,.87.72c.26,1,.5,1.93.76,2.89l.78,2.94c.37,1.4.75,2.79,1.12,4.19.29,1.11.55,2.22.85,3.33.35,1.3.75,2.6,1.1,3.9s.67,2.66,1,4,.66,2.39,1,3.59c.36,1.36.69,2.73,1.05,4.1.3,1.14.64,2.28.94,3.42s.59,2.49.89,3.73c.23.93.49,1.85.74,2.78.38,1.41.76,2.83,1.14,4.24.29,1.11.57,2.22.87,3.33.36,1.36.75,2.71,1.11,4.08.3,1.16.57,2.34.87,3.5q.58,2.23,1.19,4.46a7.37,7.37,0,0,0,.36.87,3.66,3.66,0,0,1,.32.79C212.53,99.89,212.53,100.39,212.57,100.89ZM194.13,43.21H194a1.57,1.57,0,0,0-.11.35c-.07.83-.17,1.65-.17,2.48q0,29.07,0,58.14a4.71,4.71,0,0,0,0,.9,1.48,1.48,0,0,0,.32.68c.5.56,1.05,1.07,1.55,1.62.21.23.38.57.71.36a1,1,0,0,0,.29-.71q.08-3.65.11-7.3c0-3.66.07-7.32.08-11q0-9.54,0-19.08a40.73,40.73,0,0,0-.35-7.16c-.46-2.61-.62-5.27-.92-7.91,0-.17-.06-.33-.08-.5-.35-2.54-.72-5.07-1.05-7.61C194.31,45.41,194.23,44.31,194.13,43.21Z" transform="translate(-9.18 -19.91)"/><path d="M151.64,54.88c0-4.55,0-9.1,0-13.65a7.55,7.55,0,0,1,.75-3.72A6,6,0,0,1,155,35a7.92,7.92,0,0,1,3.8-.64c4.55,0,9.1,0,13.65,0a6.88,6.88,0,0,1,3.37.75,6,6,0,0,1,2.65,2.74,7.35,7.35,0,0,1,.6,3.35c0,4.74,0,9.47,0,14.21,0,.94,0,1-1,1h-8c-1,0-1,0-1-1q0-5.38,0-10.76c0-.83-.06-.89-.91-.89H161.8c-.66,0-.76.1-.76.75q0,10.28,0,20.55c0,.84.15,1,1,1,3.38,0,6.76,0,10.13,0a9.23,9.23,0,0,1,2.89.47,5.78,5.78,0,0,1,2.69,2.07A7.09,7.09,0,0,1,179.06,73q-.06,15,0,30a6.83,6.83,0,0,1-1.44,4.45,6.56,6.56,0,0,1-2.31,1.75,8.7,8.7,0,0,1-4,.62c-4.27,0-8.53,0-12.8,0a7,7,0,0,1-4.5-1.52,6.61,6.61,0,0,1-1.8-2.4,7,7,0,0,1-.53-3.19q0-7.33,0-14.66c0-.91.06-1,1-1h7.47c.9,0,.95,0,.95,1q0,5.44,0,10.87c0,1,.1,1.1,1.1,1.1H168c.85,0,1-.12,1-1q0-4.27,0-8.55,0-6.82,0-13.65c0-1.05,0-1.06-1.08-1.06-3.19,0-6.38,0-9.57,0a6.35,6.35,0,0,1-6.14-3.84,8.43,8.43,0,0,1-.55-3.7Q151.64,61.56,151.64,54.88Zm5.25,0q0,5.75,0,11.49a3.34,3.34,0,0,0,.79,2.56,3.77,3.77,0,0,0,2.69,1.36h3.68c2.55,0,5.09,0,7.64,0a2.9,2.9,0,0,1,2.15,1.06,4,4,0,0,1,1,2.9q0,12.48,0,25a13.13,13.13,0,0,1-.53,5.13.77.77,0,0,0,.13.66,13.55,13.55,0,0,0,1.32,1.32c.32.28.77.41,1.06,0a4.44,4.44,0,0,0,.82-1.58,12,12,0,0,0,.28-2.63q0-14,0-28a16.32,16.32,0,0,0-.26-3,4.8,4.8,0,0,0-2.84-3.42,8.07,8.07,0,0,0-3.74-.66c-3.32,0-6.64,0-10,0-1.16,0-1.22-.31-1.22-1.21,0-4.4,0-8.79,0-13.19,0-3,0-6,0-9a2.11,2.11,0,0,0-.73-1.75c-.23-.19-.42-.43-.64-.64-.55-.53-1.12-.41-1.44.31a1.85,1.85,0,0,0-.14.54c0,.45-.09.9-.09,1.35Q156.89,49.2,156.9,54.89Zm8.53-19.37v-.06c-1.89,0-3.77,0-5.66,0a20.3,20.3,0,0,0-3,.28,3.26,3.26,0,0,0-2,1.3.55.55,0,0,0,0,.53,6.63,6.63,0,0,0,1.2,1.18A1.43,1.43,0,0,0,157,39a11.05,11.05,0,0,1,3.57-.47c3.15,0,6.3,0,9.45,0a7.27,7.27,0,0,1,1.19,0,3.66,3.66,0,0,1,2,.88,3.7,3.7,0,0,1,1.21,2.68c.11,3.13.28,6.25.45,9.38a1.45,1.45,0,0,0,.25.84c.64.72,1.31,1.4,2,2.06.37.35.77.16.82-.36a6.17,6.17,0,0,0,0-.62c0-3.68,0-7.36,0-11a17.7,17.7,0,0,0-.22-2.64,5.08,5.08,0,0,0-2.55-3.39,5.92,5.92,0,0,0-3.29-.83C169.73,35.48,167.58,35.52,165.43,35.52Zm-5.49,59.23c0-1.87,0-3.73,0-5.6a.91.91,0,0,0-1-1H154a1.11,1.11,0,0,0-.5.07c-.29.16-.5.39-.18.71.71.72,1.4,1.47,2.16,2.14a3.63,3.63,0,0,1,1.42,3.12c-.12,2.3,0,4.6,0,6.9a3.42,3.42,0,0,0,3.28,3.33c3.56,0,7.13,0,10.69,0a2.49,2.49,0,0,0,.94-.17.71.71,0,0,0,.25-1.26c-.25-.26-.53-.49-.75-.77a2.72,2.72,0,0,0-2.41-1c-2.64.06-5.28,0-7.92,0-.84,0-1-.21-1-1Q159.94,97.41,159.94,94.75Z" transform="translate(-9.18 -19.91)"/><path d="M242.41,76.73q0,15.85,0,31.7c0,1.34,0,1.34-1.34,1.34h-7.13c-.78,0-.86-.09-.88-.89,0-.34,0-.68,0-1q0-31.33,0-62.67c0-.23,0-.45,0-.68,0-.68-.12-.8-.79-.8H226c-1.88,0-1.65.09-1.65-1.64q0-3.4,0-6.79c0-.84.06-.9.91-.9h25c.72,0,.82.1.82.82q0,3.88,0,7.76c0,.63-.13.76-.77.76h-7c-.83,0-.89.06-.89.91Q242.41,60.69,242.41,76.73Zm-3.62-36.83-.26.06c0,.45-.11.91-.11,1.36q0,31.44,0,62.89c0,.32,0,.64,0,1a.84.84,0,0,0,.17.46q.94,1,1.92,2.06c.31.32.7.19.79-.26a3.93,3.93,0,0,0,0-.73q0-31.33,0-62.66a9.67,9.67,0,0,0-.08-1.07.8.8,0,0,0-.14-.42C240.36,41.66,239.57,40.79,238.79,39.91Zm-.72-4.44H227.6a3.59,3.59,0,0,0-.84.06.42.42,0,0,0-.21.76,21,21,0,0,1,1.66,1.51,1.74,1.74,0,0,0,1.5.57c.81,0,1.62,0,2.43,0,4.28,0,8.56,0,12.84,0a2,2,0,0,1,1.21.31c1,.88,1.86,1.86,2.8,2.78a1,1,0,0,0,.7.28c.13,0,.27-.41.28-.64,0-1.47,0-2.94,0-4.41,0-1-.24-1.23-1.24-1.23Z" transform="translate(-9.18 -19.91)"/><path d="M256.38,72.06q0-18.12,0-36.23c0-1.51-.09-1.44,1.46-1.44h7.08c.76,0,.86.09.86.85,0,1.77,0,3.55,0,5.32q0,29,0,57.91c0,.21,0,.42,0,.62,0,.79.14.91.93.91H276c.82,0,1,.21,1.05,1q0,4,0,8c0,.61-.15.73-.87.73H257.32c-.86,0-.94-.08-.94-.94q0-16.76,0-33.51Q256.38,73.7,256.38,72.06Zm8.31-3.67q0-15.71,0-31.42c0-.21,0-.42,0-.62a.79.79,0,0,0-.8-.85c-1.68,0-3.36,0-5,0a.68.68,0,0,0-.52.34.72.72,0,0,0,.22.57c.8.85,1.6,1.7,2.46,2.49a2.4,2.4,0,0,1,.76,2q0,30.85,0,61.71c0,.32,0,.64,0,1,0,.81.07.85.89.85,2.81,0,5.62,0,8.44,0a1.8,1.8,0,0,1,1.11.27c1,.88,1.85,1.86,2.79,2.78a2.87,2.87,0,0,0,.68.38,2.28,2.28,0,0,0,.32-.76c0-1.6,0-3.21,0-4.81,0-1.05-.08-1.13-1.12-1.13h-9c-1.09,0-1.21-.12-1.21-1.19Q264.69,84.15,264.69,68.38Z" transform="translate(-9.18 -19.91)"/><path d="M120.33,74.1q0,25.62,0,51.24a2.94,2.94,0,0,1,0,.68c0,.14-.19.25-.29.37a1.62,1.62,0,0,1-.37-.36,1,1,0,0,1,0-.45q0-51.49,0-103c0-.32-.11-.82.35-.82s.35.54.35.86Q120.34,48.37,120.33,74.1Z" transform="translate(-9.18 -19.91)"/></g></svg>