<?xml version="1.0" encoding="utf-8"?>
<!-- Generator: Adobe Illustrator 21.1.0, SVG Export Plug-In . SVG Version: 6.00 Build 0)  -->
<svg version="1.1" id="Layer_1" xmlns="http://www.w3.org/2000/svg" xmlns:xlink="http://www.w3.org/1999/xlink" x="0px" y="0px"
	 viewBox="0 0 144 144" style="enable-background:new 0 0 144 144;" xml:space="preserve">
<style type="text/css">
	.st0{fill:#F5F4F0;}
</style>
<g>
	<path class="st0" d="M0,72.1C-0.2,32.7,32.4-0.3,73.2,0.4C112,1,144,32.3,144,72.4c0,19.2-6.9,35.9-20.3,49.7
		C109.5,136.7,92,144,71.8,144c-19.7,0-36.9-7.1-50.8-21.2C7.1,108.8,0.2,91.8,0,72.1z M77.7,93.7c0-6.8,0-13.6,0-20.4
		c0-0.7,0.2-0.9,0.9-0.9c3.5,0,6.9,0,10.4,0c1.3,0,1.3,0,1.5-1.3c0-0.3,0.1-0.6,0.1-0.8c0.2-1.8,0.3-3.6,0.5-5.3
		c0.4-2.9,0.5-5.8,0.8-8.7c0.1-0.9,0-1-0.9-1c-3.9,0-7.9,0-11.8,0c-0.5,0-0.8,0-0.8-0.6c0-2.3,0-4.5,0-6.8c0-0.6,0.2-1.2,0.5-1.8
		c0.8-1.3,2-1.6,3.4-1.7c2.9,0,5.7,0,8.6,0c0.5,0,0.8-0.2,0.8-0.7c0-4.4,0-8.8,0-13.2c0-0.6-0.2-0.7-0.8-0.7c-3.1,0-6.1-0.1-9.2-0.1
		c-0.8,0-1.6,0-2.4,0c-2.9,0-5.8,0.2-8.6,1.3c-3.1,1.2-5.6,3.1-7.4,5.8c-2.2,3.4-3,7.1-3,11.1c0,2.2,0,4.3,0,6.5
		c0,0.7-0.2,0.9-0.9,0.9c-2.2,0-4.5,0-6.7,0c-0.6,0-0.8,0.2-0.8,0.8c0,5.2,0,10.4,0,15.6c0,0.6,0.2,0.8,0.8,0.8c2.2,0,4.4,0,6.6,0
		c1.1,0,1.1,0,1.1,1c0,13.5,0,27.1,0,40.6c0,0.7,0.2,0.9,0.9,0.9c5.1,0,10.1,0,15.2,0c1.1,0,1.1,0,1.1-1
		C77.7,107.2,77.7,100.4,77.7,93.7z"/>
</g>
</svg>
