<?xml version="1.0" encoding="utf-8"?>
<!-- Generator: Adobe Illustrator 21.1.0, SVG Export Plug-In . SVG Version: 6.00 Build 0)  -->
<svg version="1.1" id="Layer_2" xmlns="http://www.w3.org/2000/svg" xmlns:xlink="http://www.w3.org/1999/xlink" x="0px" y="0px"
	 viewBox="0 0 792 612" style="enable-background:new 0 0 792 612;" xml:space="preserve">
<style type="text/css">
	.st0{fill:none;stroke:#232323;stroke-width:10;stroke-miterlimit:10;}
</style>
<rect x="376" y="185.2" class="st0" width="40.8" height="136.9"/>
<rect x="357.6" y="322" class="st0" width="79" height="219.5"/>
<path class="st0" d="M357.6,185.2h79v-32.5c0-17.8,13.8-33,31.6-33.8c0.7,0,1.4,0,2,0h32.4v26.9h54.2V44.9h-53.5v22.2h-21.6
	c-14.8,0-29.2-5.1-40.3-14.8c-0.5-0.5-1.1-1-1.6-1.5c-7.7-7.2-10.1-9.9-15.7-15.2C410,22.2,386.5,16.8,367,19
	c-19.1,2.1-42.5,7.8-68.1,36.8C261.3,98.1,227.5,165,227.5,165l35.7,17.1c0,0,18.5-35.2,45.6-57.1c19.6-15.8,48.7-2,48.8,23.1
	L357.6,185.2z"/>
<rect x="331.9" y="541.5" class="st0" width="129" height="52"/>
</svg>
