<?xml version="1.0" encoding="utf-8"?>
<!-- Generator: Adobe Illustrator 21.1.0, SVG Export Plug-In . SVG Version: 6.00 Build 0)  -->
<svg version="1.1" id="Layer_1" xmlns="http://www.w3.org/2000/svg" xmlns:xlink="http://www.w3.org/1999/xlink" x="0px" y="0px"
	 viewBox="0 0 144 144" style="enable-background:new 0 0 144 144;" xml:space="preserve">
<style type="text/css">
	.st0{fill:#F3F3F3;}
</style>
<g>
	<path class="st0" d="M142.7,72c0,7.6,0.1,15.1,0,22.7c-0.1,4-0.3,8-0.7,11.9c-0.3,2.7-1,5.4-1.7,8.1c-0.5,2.1-1.2,4.1-2.1,6.1
		c-1.5,3.2-3.5,6.2-5.9,8.8c-2.6,2.9-5.6,5.4-9,7.3c-2.1,1.1-4.3,2-6.5,2.8c-1.9,0.7-3.9,1.3-5.9,1.7c-1.6,0.4-3.3,0.6-4.9,0.7
		c-11.7,1-23.5,0.7-35.2,0.7c-6.8,0-13.7,0-20.5-0.1c-4.3-0.1-8.6-0.3-12.8-0.8c-3.1-0.3-6.1-1.1-9.1-1.9c-3.3-1-6.5-2.4-9.4-4.4
		c-3.9-2.6-7.3-5.8-9.8-9.7c-1.1-1.6-2.2-3.3-3-5c-0.9-1.9-1.5-3.9-2.1-5.9c-0.4-1.3-0.8-2.6-1.1-3.9c-0.4-1.9-0.7-3.9-0.8-5.8
		c-1.3-18.5-0.6-37-0.6-55.5c0-4.1,0.3-8.2,0.7-12.3c0.3-2.7,1-5.4,1.7-8c0.6-2.1,1.2-4.2,2.1-6.1c1.6-3.4,3.7-6.5,6.3-9.3
		c2.5-2.7,5.3-5,8.5-6.7c2.1-1.1,4.4-2,6.6-2.8c2-0.7,4-1.4,6.1-1.7c2.3-0.4,4.6-0.6,7-0.8c18.1-1.3,36.3-0.4,54.5-0.5
		c3.9,0,7.9,0.3,11.8,0.7c2.7,0.3,5.3,1,7.9,1.7c2.1,0.6,4.2,1.3,6.2,2.2c3.5,1.6,6.6,3.8,9.4,6.5c2.6,2.5,4.8,5.2,6.6,8.3
		c0.9,1.5,1.6,3.1,2.1,4.7c0.9,2.5,1.7,5.1,2.4,7.7c0.4,1.7,0.6,3.5,0.8,5.2C143,49.6,142.8,60.8,142.7,72z M70.2,130.2
		c9.8-0.1,18-0.2,26.2-0.3c5.1-0.1,10.1-0.4,15.1-1.8c2.4-0.7,4.6-1.6,6.7-3c3.9-2.6,6.8-6,8.7-10.3c1.1-2.4,1.8-5,2.3-7.5
		c0.4-2.2,0.6-4.5,0.7-6.7c0.1-3.2,0.2-6.4,0.2-9.5c0-14.2,0-28.4-0.1-42.6c0-3.8-0.3-7.6-0.7-11.3c-0.2-1.9-0.7-3.7-1.3-5.5
		c-0.9-2.5-2-4.9-3.6-7c-2.8-3.6-6.2-6.2-10.5-7.8c-1.6-0.6-3.4-1.1-5.1-1.4c-2.2-0.4-4.5-0.9-6.7-1c-6.3-0.2-12.6-0.4-18.9-0.4
		c-10.4,0-20.7,0.1-31.1,0.1c-5.6,0-11.3-0.1-16.8,1.3c-2.3,0.6-4.5,1.1-6.6,2.1c-3.8,1.7-6.9,4.5-9.3,7.9
		c-2.4,3.5-3.6,7.5-4.3,11.6c-0.4,2.4-0.6,4.8-0.7,7.3c-0.2,4.9-0.3,9.7-0.3,14.6c0.1,15.6-0.6,31.2,0.8,46.8
		c0.2,2.3,0.8,4.6,1.5,6.8c0.8,2.5,2,4.9,3.6,7c2.4,3.1,5.3,5.5,8.8,7.1c2.1,1,4.3,1.9,6.7,2.2c2.3,0.3,4.6,0.9,6.9,1
		C52.1,130,61.9,130.1,70.2,130.2z"/>
	<path class="st0" d="M35.8,72C35.4,52.2,52.2,35.7,72,35.7c19.9,0,36.3,16.4,36.4,36.3c0,19.9-16.5,36.3-36.3,36.3
		C52.2,108.4,35.5,92,35.8,72z M48.3,71.8c0.2,13.7,10.7,24,23.8,23.9C85.5,95.6,95.7,85,95.7,72.2c0-13.7-10.6-23.8-23.7-23.8
		C58.5,48.4,48.5,59,48.3,71.8z"/>
	<path class="st0" d="M109.8,42.6c-4.8,0-8.4-3.6-8.4-8.3c0-5,3.6-8.5,8.4-8.5c4.9,0,8.5,3.7,8.4,8.5
		C118.2,38.8,114.8,42.6,109.8,42.6z"/>
</g>
</svg>
