<?xml version="1.0" encoding="utf-8"?>
<!-- Generator: Adobe Illustrator 21.1.0, SVG Export Plug-In . SVG Version: 6.00 Build 0)  -->
<svg version="1.1" id="Layer_1" xmlns="http://www.w3.org/2000/svg" xmlns:xlink="http://www.w3.org/1999/xlink" x="0px" y="0px"
	 viewBox="0 0 144 144" style="enable-background:new 0 0 144 144;" xml:space="preserve">
<style type="text/css">
	.st0{fill:#F3F3F3;}
</style>
<g>
	<path class="st0" d="M72.1,0c39.8,0.1,71.9,32.2,71.9,72.1c-0.1,39.7-32.2,71.9-72.1,71.8C32.3,143.8,0,111.7,0.2,71.7
		C0.3,32.1,32.3,0.1,72.1,0z M121,31.7c-0.1-0.1-0.1-0.2-0.2-0.2c-0.9,0.5-1.7,1-2.6,1.4c-3.1,1.5-6.4,2.6-9.8,3.4
		c-0.6,0.1-1,0-1.4-0.4c-3.9-3.8-8.5-5.9-13.9-6.1c-6.5-0.3-12,1.9-16.5,6.6c-4.3,4.5-6.2,9.9-5.8,16.1c0.1,1.1,0.2,2.2,0.3,3.3
		c-0.2,0-0.2,0.1-0.3,0.1c-3.9-0.2-7.7-0.8-11.5-1.8c-4.1-1.1-8.1-2.5-11.9-4.4c-4-2-7.8-4.4-11.3-7.2c-3-2.5-5.8-5.2-8.3-8.2
		c-0.4-0.5-0.6-0.5-0.9,0.1c-1.1,2.2-1.9,4.5-2.2,6.9c-1,8.1,1.6,14.8,8,19.9c0.3,0.2,0.6,0.5,1,0.9c-3.5,0-6.4-1.1-9.3-2.5
		c-0.1,3.9,0.8,7.3,2.6,10.5c3.1,5.5,7.7,8.9,13.8,10.6c-2.9,0.8-5.8,0.8-8.8,0.4c0.6,2.2,1.6,4.1,2.8,5.8c4.1,5.5,9.7,8.6,16.6,9.1
		c-9.1,7-19.3,9.7-30.6,8.9c0.2,0.3,0.4,0.4,0.6,0.5c1.3,0.7,2.6,1.5,3.9,2.2c4.6,2.5,9.6,4.2,14.7,5.3c5.7,1.2,11.4,1.7,17.3,1.3
		c6.1-0.4,12-1.6,17.8-3.8c5.1-1.9,9.9-4.5,14.2-7.8c3.1-2.3,5.9-4.9,8.4-7.8c2.6-3,5-6.2,7-9.6c2.3-3.9,4.2-8.1,5.7-12.4
		c1.7-5,2.7-10.2,3.1-15.5c0.1-1.9,0.1-3.9,0.2-5.8c0-0.3,0.1-0.8,0.4-1c2.5-1.9,4.9-4,6.9-6.4c1-1.3,2-2.6,3.1-3.9
		c-0.1-0.1-0.1-0.2-0.2-0.2c-3.6,1.4-7.3,2.6-11.3,2.9C116.4,40,119.4,36.4,121,31.7z"/>
</g>
</svg>
